<mxfile host="app.diagrams.net" modified="2022-03-31T09:24:04.299Z" agent="5.0 (Windows NT 10.0; Win64; x64) AppleWebKit/537.36 (KHTML, like Gecko) Chrome/99.0.4844.51 Safari/537.36" etag="LiEp50AYzkqbGoonheEe" version="17.3.0" type="github">
  <diagram id="EZ-4-FgrCIrquW6M1IZE" name="Page-1">
    <mxGraphModel dx="1185" dy="728" grid="1" gridSize="10" guides="1" tooltips="1" connect="1" arrows="1" fold="1" page="1" pageScale="1" pageWidth="827" pageHeight="1169" math="0" shadow="0">
      <root>
        <mxCell id="0" />
        <mxCell id="1" parent="0" />
        <mxCell id="CkjadzGJ_WZr15e2VWPT-14" value="" style="edgeStyle=orthogonalEdgeStyle;rounded=0;orthogonalLoop=1;jettySize=auto;html=1;" edge="1" parent="1" source="CkjadzGJ_WZr15e2VWPT-2" target="CkjadzGJ_WZr15e2VWPT-13">
          <mxGeometry relative="1" as="geometry" />
        </mxCell>
        <mxCell id="CkjadzGJ_WZr15e2VWPT-2" value="Start" style="ellipse;whiteSpace=wrap;html=1;" vertex="1" parent="1">
          <mxGeometry x="350" y="40" width="120" height="90" as="geometry" />
        </mxCell>
        <mxCell id="CkjadzGJ_WZr15e2VWPT-24" value="" style="edgeStyle=orthogonalEdgeStyle;rounded=0;orthogonalLoop=1;jettySize=auto;html=1;" edge="1" parent="1" source="CkjadzGJ_WZr15e2VWPT-13" target="CkjadzGJ_WZr15e2VWPT-20">
          <mxGeometry relative="1" as="geometry" />
        </mxCell>
        <mxCell id="CkjadzGJ_WZr15e2VWPT-26" value="" style="edgeStyle=orthogonalEdgeStyle;rounded=0;orthogonalLoop=1;jettySize=auto;html=1;" edge="1" parent="1" source="CkjadzGJ_WZr15e2VWPT-13" target="CkjadzGJ_WZr15e2VWPT-25">
          <mxGeometry relative="1" as="geometry" />
        </mxCell>
        <mxCell id="CkjadzGJ_WZr15e2VWPT-13" value="Eingabeformular ausfüllen" style="rounded=1;whiteSpace=wrap;html=1;" vertex="1" parent="1">
          <mxGeometry x="350" y="210" width="120" height="60" as="geometry" />
        </mxCell>
        <mxCell id="CkjadzGJ_WZr15e2VWPT-15" value="&lt;span&gt;Betrag eingeben&lt;/span&gt;" style="shape=process;whiteSpace=wrap;html=1;backgroundOutline=1;" vertex="1" parent="1">
          <mxGeometry x="630" y="140" width="120" height="60" as="geometry" />
        </mxCell>
        <mxCell id="CkjadzGJ_WZr15e2VWPT-18" value="&lt;span style=&quot;color: rgb(0 , 0 , 0) ; font-family: &amp;#34;helvetica&amp;#34; ; font-size: 12px ; font-style: normal ; font-weight: 400 ; letter-spacing: normal ; text-align: center ; text-indent: 0px ; text-transform: none ; word-spacing: 0px ; background-color: rgb(248 , 249 , 250) ; display: inline ; float: none&quot;&gt;Produkt eingeben&lt;/span&gt;" style="shape=process;whiteSpace=wrap;html=1;backgroundOutline=1;" vertex="1" parent="1">
          <mxGeometry x="630" y="210" width="120" height="60" as="geometry" />
        </mxCell>
        <mxCell id="CkjadzGJ_WZr15e2VWPT-19" value="&#xa;&#xa;&lt;span style=&quot;color: rgb(0, 0, 0); font-family: helvetica; font-size: 12px; font-style: normal; font-weight: 400; letter-spacing: normal; text-align: center; text-indent: 0px; text-transform: none; word-spacing: 0px; background-color: rgb(248, 249, 250); display: inline; float: none;&quot;&gt;Produkt klassifizieren&lt;/span&gt;&#xa;&#xa;" style="shape=process;whiteSpace=wrap;html=1;backgroundOutline=1;" vertex="1" parent="1">
          <mxGeometry x="630" y="280" width="120" height="60" as="geometry" />
        </mxCell>
        <mxCell id="CkjadzGJ_WZr15e2VWPT-21" value="" style="edgeStyle=orthogonalEdgeStyle;rounded=0;orthogonalLoop=1;jettySize=auto;html=1;" edge="1" parent="1" source="CkjadzGJ_WZr15e2VWPT-20" target="CkjadzGJ_WZr15e2VWPT-18">
          <mxGeometry relative="1" as="geometry" />
        </mxCell>
        <mxCell id="CkjadzGJ_WZr15e2VWPT-22" style="edgeStyle=orthogonalEdgeStyle;rounded=0;orthogonalLoop=1;jettySize=auto;html=1;entryX=0;entryY=0.5;entryDx=0;entryDy=0;exitX=0.5;exitY=1;exitDx=0;exitDy=0;" edge="1" parent="1" source="CkjadzGJ_WZr15e2VWPT-20" target="CkjadzGJ_WZr15e2VWPT-19">
          <mxGeometry relative="1" as="geometry" />
        </mxCell>
        <mxCell id="CkjadzGJ_WZr15e2VWPT-23" style="edgeStyle=orthogonalEdgeStyle;rounded=0;orthogonalLoop=1;jettySize=auto;html=1;exitX=0.5;exitY=0;exitDx=0;exitDy=0;entryX=0;entryY=0.5;entryDx=0;entryDy=0;" edge="1" parent="1" source="CkjadzGJ_WZr15e2VWPT-20" target="CkjadzGJ_WZr15e2VWPT-15">
          <mxGeometry relative="1" as="geometry" />
        </mxCell>
        <mxCell id="CkjadzGJ_WZr15e2VWPT-20" value="" style="rhombus;whiteSpace=wrap;html=1;" vertex="1" parent="1">
          <mxGeometry x="520" y="215" width="50" height="50" as="geometry" />
        </mxCell>
        <mxCell id="CkjadzGJ_WZr15e2VWPT-29" value="" style="edgeStyle=orthogonalEdgeStyle;rounded=0;orthogonalLoop=1;jettySize=auto;html=1;" edge="1" parent="1" source="CkjadzGJ_WZr15e2VWPT-25" target="CkjadzGJ_WZr15e2VWPT-28">
          <mxGeometry relative="1" as="geometry" />
        </mxCell>
        <mxCell id="CkjadzGJ_WZr15e2VWPT-25" value="Betrag von Budget abziehen" style="rounded=1;whiteSpace=wrap;html=1;" vertex="1" parent="1">
          <mxGeometry x="350" y="300" width="120" height="60" as="geometry" />
        </mxCell>
        <mxCell id="CkjadzGJ_WZr15e2VWPT-31" value="" style="edgeStyle=orthogonalEdgeStyle;rounded=0;orthogonalLoop=1;jettySize=auto;html=1;" edge="1" parent="1" source="CkjadzGJ_WZr15e2VWPT-28" target="CkjadzGJ_WZr15e2VWPT-30">
          <mxGeometry relative="1" as="geometry" />
        </mxCell>
        <mxCell id="CkjadzGJ_WZr15e2VWPT-28" value="Betrag zu Genres hinzufügen" style="rounded=1;whiteSpace=wrap;html=1;" vertex="1" parent="1">
          <mxGeometry x="350" y="390" width="120" height="60" as="geometry" />
        </mxCell>
        <mxCell id="CkjadzGJ_WZr15e2VWPT-33" value="" style="edgeStyle=orthogonalEdgeStyle;rounded=0;orthogonalLoop=1;jettySize=auto;html=1;" edge="1" parent="1" source="CkjadzGJ_WZr15e2VWPT-30" target="CkjadzGJ_WZr15e2VWPT-32">
          <mxGeometry relative="1" as="geometry" />
        </mxCell>
        <mxCell id="CkjadzGJ_WZr15e2VWPT-30" value="Aktualisiertes Budget anzeigen" style="rounded=1;whiteSpace=wrap;html=1;" vertex="1" parent="1">
          <mxGeometry x="350" y="480" width="120" height="60" as="geometry" />
        </mxCell>
        <mxCell id="CkjadzGJ_WZr15e2VWPT-32" value="Genres Übersicht anzeigen" style="rounded=1;whiteSpace=wrap;html=1;" vertex="1" parent="1">
          <mxGeometry x="350" y="570" width="120" height="60" as="geometry" />
        </mxCell>
      </root>
    </mxGraphModel>
  </diagram>
</mxfile>
